<svg width="149" height="56" viewBox="0 0 149 56" fill="none" xmlns="http://www.w3.org/2000/svg">
<path d="M6.53033 0.46967C6.23744 0.176777 5.76256 0.176777 5.46967 0.46967L0.696699 5.24264C0.403806 5.53553 0.403806 6.01041 0.696699 6.3033C0.989593 6.59619 1.46447 6.59619 1.75736 6.3033L6 2.06066L10.2426 6.3033C10.5355 6.59619 11.0104 6.59619 11.3033 6.3033C11.5962 6.01041 11.5962 5.53553 11.3033 5.24264L6.53033 0.46967ZM149 54.25H18V55.75H149V54.25ZM6.75 43V1H5.25V43H6.75ZM18 54.25C11.7868 54.25 6.75 49.2132 6.75 43H5.25C5.25 50.0416 10.9584 55.75 18 55.75V54.25Z" fill="url(#paint0_linear_4904_1591)"/>
<defs>
<linearGradient id="paint0_linear_4904_1591" x1="6" y1="6" x2="149" y2="55" gradientUnits="userSpaceOnUse">
<stop stop-color="#1D63FF"/>
<stop offset="1" stop-color="#1D63FF" stop-opacity="0"/>
</linearGradient>
</defs>
</svg>
