<svg width="64" height="64" viewBox="0 0 64 64" fill="none" xmlns="http://www.w3.org/2000/svg">
<g id="Group 482126">
<rect id="Rectangle 203" width="64" height="64" rx="6" fill="url(#paint0_linear_4904_1106)" fill-opacity="0.1"/>
<g id="chart">
<path id="Rectangle 407" opacity="0.4" d="M43.0543 27.1085C44.5448 27.1085 45.7531 28.3168 45.7531 29.8073L45.7531 43.3013C45.7531 44.7918 44.5448 46.0001 43.0543 46.0001C41.5638 46.0001 40.3555 44.7918 40.3555 43.3013L40.3555 29.8073C40.3555 28.3168 41.5638 27.1085 43.0543 27.1085Z" fill="#1D63FF"/>
<path id="Rectangle 408" opacity="0.4" d="M21.4644 37.9036C22.9549 37.9036 24.1632 39.1119 24.1632 40.6024V43.3012C24.1632 44.7917 22.9549 45.9999 21.4644 45.9999C19.9739 45.9999 18.7656 44.7917 18.7656 43.3012L18.7656 40.6024C18.7656 39.1119 19.9739 37.9036 21.4644 37.9036Z" fill="#1D63FF"/>
<path id="Rectangle 409" opacity="0.4" d="M32.2593 32.506C33.7498 32.506 34.9581 33.7143 34.9581 35.2048V43.3012C34.9581 44.7917 33.7498 46 32.2593 46C30.7688 46 29.5605 44.7917 29.5605 43.3012L29.5605 35.2048C29.5605 33.7143 30.7688 32.506 32.2593 32.506Z" fill="#1D63FF"/>
<path id="Vector (Stroke)" fill-rule="evenodd" clip-rule="evenodd" d="M40.6938 19.012C40.6938 18.4531 41.1469 18 41.7058 18H44.4046C45.7088 18 46.7661 19.0573 46.7661 20.3614V23.0602C46.7661 23.6192 46.313 24.0723 45.754 24.0723C45.1951 24.0723 44.742 23.6192 44.742 23.0602V21.3885C39.5023 25.5858 35.4394 28.3125 31.5054 30.1371C27.482 32.0032 23.6421 32.9032 18.8943 33.5099C18.3399 33.5808 17.833 33.1887 17.7622 32.6343C17.6913 32.0799 18.0834 31.573 18.6378 31.5021C23.2577 30.9118 26.8789 30.0517 30.6538 28.3009C34.3095 26.6054 38.1543 24.0536 43.2071 20.0241H41.7058C41.1469 20.0241 40.6938 19.571 40.6938 19.012Z" fill="#1D63FF"/>
</g>
</g>
<defs>
<linearGradient id="paint0_linear_4904_1106" x1="32" y1="-1.68596e-06" x2="-24.5714" y2="75.4286" gradientUnits="userSpaceOnUse">
<stop stop-color="#1D63FF"/>
<stop offset="1" stop-color="#1D63FF" stop-opacity="0"/>
</linearGradient>
</defs>
</svg>
