<svg width="64" height="64" viewBox="0 0 64 64" fill="none" xmlns="http://www.w3.org/2000/svg">
<g id="Group 482125">
<rect id="Rectangle 203" width="64" height="64" rx="6" fill="url(#paint0_linear_4904_1096)" fill-opacity="0.1"/>
<g id="interactive">
<path id="Vector 2461" d="M35.7255 44.9234L32.0799 33.9866C31.6872 32.8084 32.8081 31.6874 33.9864 32.0802L44.9232 35.7258C46.2972 36.1838 46.2972 38.1274 44.9232 38.5854L40.8846 39.9316C40.4345 40.0816 40.0814 40.4348 39.9314 40.8848L38.5852 44.9234C38.1272 46.2975 36.1836 46.2975 35.7255 44.9234Z" fill="#1D63FF"/>
<path id="Vector (Stroke)" opacity="0.4" fill-rule="evenodd" clip-rule="evenodd" d="M31.9999 26.0699C28.7247 26.0699 26.0696 28.725 26.0696 32.0002C26.0696 34.4888 27.6029 36.6219 29.7802 37.5014C30.3161 37.7179 30.5751 38.3278 30.3586 38.8637C30.1421 39.3997 29.5322 39.6586 28.9963 39.4421C26.055 38.254 23.9766 35.3711 23.9766 32.0002C23.9766 27.569 27.5688 23.9768 31.9999 23.9768C35.3708 23.9768 38.2537 26.0552 39.4419 28.9965C39.6584 29.5324 39.3994 30.1423 38.8635 30.3588C38.3276 30.5753 37.7177 30.3164 37.5012 29.7805C36.6216 27.6031 34.4886 26.0699 31.9999 26.0699Z" fill="#1D63FF"/>
<path id="Vector (Stroke)_2" opacity="0.4" fill-rule="evenodd" clip-rule="evenodd" d="M32.0002 19.0931C24.8718 19.0931 19.0931 24.8718 19.0931 32.0002C19.0931 39.0923 24.813 44.8484 31.8911 44.907C32.469 44.9118 32.9337 45.3842 32.9289 45.9621C32.9241 46.5401 32.4517 47.0047 31.8738 47C23.6475 46.9319 17 40.2424 17 32.0002C17 23.7158 23.7158 17 32.0002 17C40.2424 17 46.9319 23.6475 47 31.8738C47.0047 32.4517 46.5401 32.9241 45.9621 32.9289C45.3842 32.9337 44.9118 32.469 44.907 31.8911C44.8484 24.813 39.0923 19.0931 32.0002 19.0931Z" fill="#1D63FF"/>
</g>
</g>
<defs>
<linearGradient id="paint0_linear_4904_1096" x1="32" y1="-1.68596e-06" x2="-24.5714" y2="75.4286" gradientUnits="userSpaceOnUse">
<stop stop-color="#1D63FF"/>
<stop offset="1" stop-color="#1D63FF" stop-opacity="0"/>
</linearGradient>
</defs>
</svg>
