<svg xmlns="http://www.w3.org/2000/svg" width="64" height="64" viewBox="0 0 64 64" fill="none">
  <circle cx="32" cy="32" r="32" fill="url(#paint0_linear_4904_1826)" fill-opacity="0.1"/>
  <path opacity="0.5" fill-rule="evenodd" clip-rule="evenodd" d="M18.5197 26.3747C20.7439 20.8799 26.1317 17 32.4289 17C39.8875 17 46.0746 22.4438 47.2338 29.5748L48.8003 28.4C49.3683 27.974 50.1742 28.0891 50.6003 28.6571C51.0263 29.2252 50.9112 30.0311 50.3431 30.4571L48.6097 31.7572C47.1812 32.8286 45.27 33.0009 43.6729 32.2023L42.1396 31.4357C41.5045 31.1181 41.247 30.3458 41.5646 29.7107C41.8821 29.0756 42.6544 28.8182 43.2896 29.1357L44.6677 29.8248C43.6391 23.9978 38.5509 19.5714 32.4289 19.5714C27.2149 19.5714 22.7479 22.7824 20.9032 27.3396C20.6368 27.9978 19.8872 28.3154 19.229 28.0489C18.5708 27.7825 18.2532 27.0329 18.5197 26.3747ZM17.5639 34.0218C17.5067 34.0445 17.4501 34.0697 17.3943 34.0976L15.861 34.8643C15.2259 35.1818 14.4536 34.9244 14.136 34.2893C13.8185 33.6542 14.0759 32.8819 14.711 32.5643L16.2443 31.7977C17.8414 30.9991 19.7527 31.1714 21.1812 32.2428L22.9146 33.5429C23.4826 33.9689 23.5978 34.7748 23.1717 35.3429C22.7457 35.9109 21.9398 36.026 21.3717 35.6L20.3195 34.8108C21.5934 40.3211 26.5314 44.4286 32.4289 44.4286C37.6428 44.4286 42.1098 41.2176 43.9545 36.6604C44.2209 36.0022 44.9705 35.6846 45.6287 35.9511C46.2869 36.2175 46.6045 36.9671 46.338 37.6253C44.1138 43.1201 38.726 47 32.4289 47C24.8302 47 18.5512 41.3499 17.5639 34.0218Z" fill="#1D63FF"/>
  <path fill-rule="evenodd" clip-rule="evenodd" d="M32.4291 21.2854C33.1392 21.2854 33.7148 21.861 33.7148 22.5711V24.0343C35.6936 24.5939 37.1434 26.4132 37.1434 28.5711C37.1434 29.2812 36.5678 29.8568 35.8577 29.8568C35.1476 29.8568 34.572 29.2812 34.572 28.5711C34.572 27.3876 33.6126 26.4283 32.4291 26.4283C31.2457 26.4283 30.2863 27.3876 30.2863 28.5711C30.2863 29.7546 31.2457 30.714 32.4291 30.714C35.0328 30.714 37.1434 32.8246 37.1434 35.4283C37.1434 37.5862 35.6936 39.4054 33.7148 39.9651V41.4283C33.7148 42.1383 33.1392 42.714 32.4291 42.714C31.719 42.714 31.1434 42.1383 31.1434 41.4283V39.9651C29.1647 39.4054 27.7148 37.5862 27.7148 35.4283C27.7148 34.7182 28.2905 34.1425 29.0006 34.1425C29.7106 34.1425 30.2863 34.7182 30.2863 35.4283C30.2863 36.6117 31.2457 37.5711 32.4291 37.5711C33.6126 37.5711 34.572 36.6117 34.572 35.4283C34.572 34.2448 33.6126 33.2854 32.4291 33.2854C29.8255 33.2854 27.7148 31.1747 27.7148 28.5711C27.7148 26.4132 29.1647 24.5939 31.1434 24.0343V22.5711C31.1434 21.861 31.719 21.2854 32.4291 21.2854Z" fill="#1D63FF"/>
  <defs>
    <linearGradient id="paint0_linear_4904_1826" x1="32" y1="-1.68596e-06" x2="-24.5714" y2="75.4286" gradientUnits="userSpaceOnUse">
      <stop stop-color="#1D63FF"/>
      <stop offset="1" stop-color="#1D63FF" stop-opacity="0"/>
    </linearGradient>
  </defs>
</svg>