<svg width="64" height="64" viewBox="0 0 64 64" fill="none" xmlns="http://www.w3.org/2000/svg">
<g id="Group 482123">
<rect id="Rectangle 203" width="64" height="64" rx="6" fill="url(#paint0_linear_4904_1076)" fill-opacity="0.1"/>
<g id="physcis">
<path id="Vector (Stroke)" fill-rule="evenodd" clip-rule="evenodd" d="M37.5135 21.1148C34.629 22.351 31.2036 24.7228 27.9632 27.9633C24.7228 31.2037 22.351 34.629 21.1148 37.5135C20.4954 38.9587 20.1838 40.2157 20.1559 41.2153C20.1281 42.2118 20.3802 42.8485 20.7659 43.2341C21.1515 43.6198 21.7882 43.8719 22.7847 43.8441C23.7843 43.8162 25.0412 43.5046 26.4864 42.8852C29.3709 41.649 32.7963 39.2772 36.0367 36.0367C39.2771 32.7963 41.6489 29.371 42.8851 26.4865C43.5045 25.0413 43.8161 23.7843 43.844 22.7847C43.8718 21.7882 43.6196 21.1515 43.234 20.7659C42.8484 20.3802 42.2117 20.1281 41.2152 20.1559C40.2156 20.1838 38.9587 20.4954 37.5135 21.1148ZM41.1551 18.0029C42.5207 17.9648 43.8177 18.3035 44.757 19.2429C45.6964 20.1822 46.0351 21.4792 45.997 22.8448C45.959 24.2073 45.5479 25.741 44.8648 27.3349C43.4961 30.5286 40.9442 34.1752 37.5597 37.5597C34.1751 40.9443 30.5285 43.4962 27.3349 44.8649C25.741 45.548 24.2073 45.9591 22.8448 45.9971C21.4791 46.0352 20.1822 45.6965 19.2429 44.7571C18.3035 43.8178 17.9648 42.5208 18.0029 41.1552C18.0409 39.7927 18.452 38.259 19.1351 36.6651C20.5038 33.4714 23.0557 29.8248 26.4402 26.4403C29.8248 23.0557 33.4713 20.5038 36.665 19.1351C38.2589 18.452 39.7926 18.0409 41.1551 18.0029Z" fill="#1D63FF"/>
<path id="Vector (Stroke)_2" opacity="0.4" fill-rule="evenodd" clip-rule="evenodd" d="M22.7847 20.1559C21.7882 20.1281 21.1515 20.3802 20.7659 20.7659C20.3802 21.1515 20.1281 21.7882 20.1559 22.7847C20.1838 23.7843 20.4954 25.0413 21.1148 26.4865C22.351 29.371 24.7228 32.7963 27.9632 36.0367C31.2036 39.2772 34.629 41.649 37.5135 42.8852C38.9587 43.5046 40.2156 43.8162 41.2152 43.8441C42.2117 43.8719 42.8484 43.6198 43.234 43.2341C43.6196 42.8485 43.8718 42.2118 43.844 41.2153C43.8161 40.2157 43.5045 38.9587 42.8851 37.5135C41.6489 34.629 39.2771 31.2037 36.0367 27.9633C32.7963 24.7228 29.3709 22.351 26.4864 21.1148C25.0412 20.4954 23.7843 20.1838 22.7847 20.1559ZM27.3349 19.1351C30.5285 20.5038 34.1751 23.0557 37.5597 26.4403C40.9442 29.8248 43.4961 33.4714 44.8648 36.6651C45.5479 38.259 45.959 39.7927 45.997 41.1552C46.0351 42.5208 45.6964 43.8178 44.757 44.7571C43.8177 45.6965 42.5207 46.0352 41.1551 45.9971C39.7926 45.9591 38.2589 45.548 36.665 44.8649C33.4713 43.4962 29.8248 40.9443 26.4402 37.5597C23.0557 34.1752 20.5038 30.5286 19.1351 27.3349C18.452 25.741 18.0409 24.2073 18.0029 22.8448C17.9648 21.4792 18.3035 20.1822 19.2429 19.2429C20.1822 18.3035 21.4791 17.9648 22.8448 18.0029C24.2073 18.0409 25.741 18.452 27.3349 19.1351Z" fill="#1D63FF"/>
<circle id="Ellipse 592" opacity="0.4" cx="32.0007" cy="32" r="2.8718" fill="#1D63FF"/>
</g>
</g>
<defs>
<linearGradient id="paint0_linear_4904_1076" x1="32" y1="-1.68596e-06" x2="-24.5714" y2="75.4286" gradientUnits="userSpaceOnUse">
<stop stop-color="#1D63FF"/>
<stop offset="1" stop-color="#1D63FF" stop-opacity="0"/>
</linearGradient>
</defs>
</svg>
