<svg width="64" height="64" viewBox="0 0 64 64" fill="none" xmlns="http://www.w3.org/2000/svg">
<g id="Group 482124">
<rect id="Rectangle 203" width="64" height="64" rx="6" fill="url(#paint0_linear_4904_1086)" fill-opacity="0.1"/>
<g id="wireless charging">
<path id="Vector 2887 (Stroke)" opacity="0.4" fill-rule="evenodd" clip-rule="evenodd" d="M34.8385 23.7654C35.4316 24.2103 35.5519 25.0518 35.107 25.6449L31.3479 30.6571H35.823C36.3315 30.6571 36.7964 30.9444 37.0238 31.3992C37.2512 31.854 37.2021 32.3983 36.897 32.8051L31.5269 39.9652C31.082 40.5584 30.2405 40.6786 29.6474 40.2337C29.0542 39.7889 28.934 38.9474 29.3789 38.3542L33.1379 33.3421H28.6628C28.1543 33.3421 27.6895 33.0548 27.4621 32.6C27.2346 32.1452 27.2837 31.6009 27.5888 31.1941L32.9589 24.0339C33.4038 23.4408 34.2453 23.3205 34.8385 23.7654Z" fill="#1D63FF"/>
<path id="Vector (Stroke)" fill-rule="evenodd" clip-rule="evenodd" d="M25.5977 23.4566C26.122 23.9809 26.122 24.8309 25.5977 25.3552C23.8956 27.0573 22.8452 29.4049 22.8452 32.0004C22.8452 34.5958 23.8956 36.9434 25.5977 38.6455C26.122 39.1698 26.122 40.0199 25.5977 40.5442C25.0734 41.0684 24.2234 41.0684 23.6991 40.5442C21.514 38.3591 20.1602 35.3366 20.1602 32.0004C20.1602 28.6642 21.514 25.6416 23.6991 23.4566C24.2234 22.9323 25.0734 22.9323 25.5977 23.4566ZM38.8881 23.4566C39.4124 22.9323 40.2624 22.9323 40.7867 23.4566C42.9718 25.6416 44.3257 28.6642 44.3257 32.0004C44.3257 35.3366 42.9718 38.3591 40.7867 40.5442C40.2624 41.0684 39.4124 41.0684 38.8881 40.5442C38.3638 40.0199 38.3638 39.1698 38.8881 38.6455C40.5902 36.9434 41.6406 34.5958 41.6406 32.0004C41.6406 29.4049 40.5902 27.0573 38.8881 25.3552C38.3638 24.8309 38.3638 23.9809 38.8881 23.4566Z" fill="#1D63FF"/>
<path id="Vector (Stroke)_2" opacity="0.4" fill-rule="evenodd" clip-rule="evenodd" d="M20.5347 18.3932C21.059 18.9175 21.059 19.7675 20.5347 20.2918C17.5369 23.2897 15.6851 27.4273 15.6851 32C15.6851 36.5727 17.5369 40.7103 20.5347 43.7082C21.059 44.2325 21.059 45.0825 20.5347 45.6068C20.0104 46.1311 19.1604 46.1311 18.6361 45.6068C15.1553 42.126 13 37.3134 13 32C13 26.6866 15.1553 21.874 18.6361 18.3932C19.1604 17.8689 20.0104 17.8689 20.5347 18.3932ZM43.9511 18.3932C44.4753 17.8689 45.3254 17.8689 45.8497 18.3932C49.3305 21.874 51.4858 26.6866 51.4858 32C51.4858 37.3134 49.3305 42.126 45.8497 45.6068C45.3254 46.1311 44.4753 46.1311 43.9511 45.6068C43.4268 45.0825 43.4268 44.2325 43.9511 43.7082C46.9489 40.7103 48.8007 36.5727 48.8007 32C48.8007 27.4273 46.9489 23.2897 43.9511 20.2918C43.4268 19.7675 43.4268 18.9175 43.9511 18.3932Z" fill="#1D63FF"/>
</g>
</g>
<defs>
<linearGradient id="paint0_linear_4904_1086" x1="32" y1="-1.68596e-06" x2="-24.5714" y2="75.4286" gradientUnits="userSpaceOnUse">
<stop stop-color="#1D63FF"/>
<stop offset="1" stop-color="#1D63FF" stop-opacity="0"/>
</linearGradient>
</defs>
</svg>
