<svg xmlns="http://www.w3.org/2000/svg" width="64" height="64" viewBox="0 0 64 64" fill="none">
  <circle cx="32" cy="32" r="32" fill="url(#paint0_linear_4904_1836)" fill-opacity="0.1"/>
  <path opacity="0.5" d="M32.5001 18.9998H29.5001C22.0442 18.9998 16 25.044 16 32.4999V39.9999C16 43.3137 18.6863 46 22.0001 46H32.5001C39.9561 46 46.0003 39.9558 46.0003 32.4999C46.0003 25.044 39.9561 18.9998 32.5001 18.9998Z" stroke="#1D63FF" stroke-width="2" stroke-linecap="round" stroke-linejoin="round"/>
  <path d="M46.0002 22.0001C46.0002 25.3138 43.3139 28.0001 40.0001 28.0001C36.6864 28.0001 34.0001 25.3138 34.0001 22.0001C34.0001 18.6863 36.6864 16 40.0001 16C43.3139 16 46.0002 18.6863 46.0002 22.0001Z" fill="#1D63FF"/>
  <path fill-rule="evenodd" clip-rule="evenodd" d="M23.875 29.5001C23.875 28.8788 24.3787 28.3751 25 28.3751H31.0001C31.6214 28.3751 32.1251 28.8788 32.1251 29.5001C32.1251 30.1214 31.6214 30.6251 31.0001 30.6251H25C24.3787 30.6251 23.875 30.1214 23.875 29.5001ZM23.875 35.5002C23.875 34.8789 24.3787 34.3752 25 34.3752H37.0001C37.6214 34.3752 38.1251 34.8789 38.1251 35.5002C38.1251 36.1215 37.6214 36.6252 37.0001 36.6252H25C24.3787 36.6252 23.875 36.1215 23.875 35.5002Z" fill="#1D63FF"/>
  <defs>
    <linearGradient id="paint0_linear_4904_1836" x1="32" y1="-1.68596e-06" x2="-24.5714" y2="75.4286" gradientUnits="userSpaceOnUse">
      <stop stop-color="#1D63FF"/>
      <stop offset="1" stop-color="#1D63FF" stop-opacity="0"/>
    </linearGradient>
  </defs>
</svg>