<svg width="232" height="37" viewBox="0 0 232 37" fill="none" xmlns="http://www.w3.org/2000/svg">
<rect opacity="0.6" x="2.81123" width="16.6852" height="28.0745" transform="matrix(0.866025 -0.5 0.866025 0.5 0.376633 22.3895)" stroke="#1D63FF" stroke-width="3.24613"/>
<rect width="19.9313" height="31.3206" transform="matrix(0.866025 -0.5 0.866025 0.5 0 9.96553)" fill="#1D63FF"/>
<path d="M66.1467 27.6337C65.1772 27.6337 64.2423 27.5385 63.342 27.3481C62.4591 27.1576 61.6713 26.8547 60.9788 26.4392C60.2863 26.0063 59.7323 25.4523 59.3168 24.7771C58.9186 24.102 58.7195 23.2709 58.7195 22.2841C58.7195 22.1976 58.7195 22.111 58.7195 22.0244C58.7368 21.9379 58.7455 21.8513 58.7455 21.7647H61.2385C61.2385 21.8167 61.2299 21.9032 61.2126 22.0244C61.2126 22.1283 61.2126 22.2235 61.2126 22.3101C61.2126 23.0026 61.4203 23.5912 61.8358 24.076C62.2513 24.5607 62.8226 24.9243 63.5498 25.1667C64.2942 25.3917 65.1339 25.5043 66.0688 25.5043C66.4843 25.5043 66.9171 25.4783 67.3672 25.4264C67.8347 25.3744 68.2761 25.2879 68.6916 25.1667C69.1245 25.0282 69.5053 24.8551 69.8343 24.6473C70.1805 24.4222 70.4489 24.1539 70.6393 23.8423C70.8471 23.5133 70.9509 23.1151 70.9509 22.6477C70.9509 22.0591 70.7778 21.5743 70.4316 21.1934C70.1026 20.7952 69.6611 20.4749 69.1071 20.2326C68.5531 19.9729 67.9212 19.7478 67.2114 19.5574C66.5189 19.3496 65.8004 19.1505 65.056 18.9601C64.3115 18.7696 63.5844 18.5532 62.8746 18.3109C62.1821 18.0512 61.5588 17.7395 61.0048 17.376C60.4508 16.9951 60.0007 16.5277 59.6544 15.9736C59.3255 15.4196 59.161 14.7444 59.161 13.9481C59.161 13.2036 59.3082 12.5371 59.6025 11.9484C59.9141 11.3598 60.3642 10.8664 60.9529 10.4682C61.5588 10.0527 62.3033 9.74108 63.1862 9.53333C64.0692 9.30826 65.0819 9.19573 66.2246 9.19573C67.1595 9.19573 68.0251 9.29961 68.8215 9.50736C69.6352 9.6978 70.345 10.0008 70.9509 10.4163C71.5742 10.8145 72.059 11.3252 72.4052 11.9484C72.7515 12.5717 72.9246 13.3248 72.9246 14.2078V14.5194H70.4835V14.1298C70.4835 13.5412 70.3017 13.0391 69.9382 12.6236C69.5746 12.2081 69.0725 11.8879 68.4319 11.6628C67.8087 11.4377 67.0989 11.3252 66.3025 11.3252C65.2637 11.3252 64.3981 11.4291 63.7056 11.6368C63.0131 11.8273 62.4937 12.1129 62.1474 12.4938C61.8185 12.8574 61.654 13.2729 61.654 13.7403C61.654 14.277 61.8185 14.7271 62.1474 15.0907C62.4937 15.4543 62.9438 15.7572 63.4978 15.9996C64.0518 16.2247 64.6838 16.4324 65.3936 16.6229C66.1034 16.8133 66.8219 17.0124 67.549 17.2202C68.2934 17.4106 69.0119 17.6357 69.7044 17.8954C70.4143 18.1377 71.0462 18.4494 71.6002 18.8302C72.1715 19.1938 72.6216 19.6612 72.9506 20.2326C73.2795 20.7866 73.444 21.4704 73.444 22.2841C73.444 23.5479 73.1323 24.5781 72.5091 25.3744C71.8858 26.1535 71.0289 26.7248 69.9382 27.0884C68.8475 27.452 67.5836 27.6337 66.1467 27.6337ZM77.0238 27.3221V13.6624H78.8676L79.0754 15.714H79.2572C79.6034 15.16 79.993 14.7098 80.4258 14.3636C80.8586 14.0173 81.3347 13.7663 81.8541 13.6105C82.3735 13.4373 82.9361 13.3508 83.5421 13.3508C84.425 13.3508 85.1868 13.5326 85.8273 13.8961C86.4679 14.2424 86.944 14.8483 87.2556 15.714H87.4115C87.7404 15.16 88.1213 14.7185 88.5541 14.3895C88.9869 14.0433 89.4717 13.7836 90.0084 13.6105C90.545 13.4373 91.1164 13.3508 91.7223 13.3508C92.5533 13.3508 93.2805 13.4979 93.9037 13.7922C94.527 14.0693 95.0117 14.5367 95.358 15.1946C95.7215 15.8351 95.9033 16.7008 95.9033 17.7915V27.3221H93.618V18.155C93.618 17.601 93.5488 17.1423 93.4103 16.7787C93.2891 16.4151 93.1073 16.1381 92.8649 15.9477C92.6226 15.7399 92.3369 15.5928 92.008 15.5062C91.6963 15.4196 91.3587 15.3764 90.9952 15.3764C90.3892 15.3764 89.8266 15.5322 89.3072 15.8438C88.8051 16.1554 88.3983 16.6056 88.0866 17.1942C87.775 17.7828 87.6192 18.484 87.6192 19.2977V27.3221H85.3339V18.155C85.3339 17.601 85.2647 17.1423 85.1262 16.7787C84.9877 16.4151 84.8059 16.1381 84.5808 15.9477C84.3558 15.7399 84.0788 15.5928 83.7498 15.5062C83.4382 15.4196 83.1092 15.3764 82.763 15.3764C82.1397 15.3764 81.5598 15.5322 81.0231 15.8438C80.5037 16.1554 80.0882 16.6056 79.7766 17.1942C79.4649 17.7828 79.3091 18.484 79.3091 19.2977V27.3221H77.0238ZM103.184 27.6337C102.682 27.6337 102.18 27.5731 101.678 27.452C101.176 27.3308 100.708 27.1317 100.275 26.8547C99.8424 26.5777 99.4962 26.1968 99.2365 25.712C98.9768 25.21 98.847 24.5867 98.847 23.8423C98.847 22.9074 99.072 22.137 99.5222 21.531C99.9723 20.9251 100.596 20.4576 101.392 20.1287C102.206 19.7824 103.166 19.5487 104.274 19.4275C105.382 19.289 106.586 19.2198 107.884 19.2198V17.6616C107.884 17.1596 107.798 16.7267 107.624 16.3632C107.451 15.9996 107.14 15.7226 106.69 15.5322C106.257 15.3244 105.634 15.2205 104.82 15.2205C104.041 15.2205 103.418 15.3244 102.95 15.5322C102.5 15.7226 102.18 15.9736 101.989 16.2853C101.816 16.5969 101.73 16.9432 101.73 17.324V17.7136H99.5222C99.5048 17.627 99.4962 17.5404 99.4962 17.4539C99.4962 17.3673 99.4962 17.2634 99.4962 17.1423C99.4962 16.3112 99.7212 15.6187 100.171 15.0647C100.639 14.4934 101.288 14.0693 102.119 13.7922C102.95 13.4979 103.902 13.3508 104.976 13.3508C106.118 13.3508 107.07 13.5152 107.832 13.8442C108.611 14.1731 109.191 14.6406 109.572 15.2465C109.97 15.8525 110.169 16.5796 110.169 17.4279V24.8291C110.169 25.158 110.247 25.3917 110.403 25.5302C110.559 25.6514 110.749 25.712 110.974 25.712H111.987V27.2182C111.745 27.3221 111.477 27.4087 111.182 27.4779C110.888 27.5645 110.55 27.6078 110.169 27.6078C109.719 27.6078 109.347 27.5126 109.053 27.3221C108.758 27.149 108.533 26.9066 108.378 26.595C108.222 26.266 108.118 25.9025 108.066 25.5043H107.884C107.573 25.9371 107.174 26.318 106.69 26.6469C106.222 26.9585 105.694 27.2009 105.105 27.3741C104.517 27.5472 103.876 27.6337 103.184 27.6337ZM103.755 25.712C104.309 25.712 104.828 25.6255 105.313 25.4523C105.815 25.2792 106.257 25.0368 106.638 24.7252C107.019 24.3963 107.322 24.0067 107.547 23.5566C107.772 23.1065 107.884 22.6131 107.884 22.0764V20.9337C106.482 20.9337 105.287 21.0116 104.3 21.1675C103.314 21.3233 102.552 21.6003 102.015 21.9985C101.496 22.3967 101.236 22.9593 101.236 23.6864C101.236 24.1539 101.34 24.5348 101.548 24.8291C101.755 25.1234 102.05 25.3485 102.431 25.5043C102.812 25.6428 103.253 25.712 103.755 25.712ZM114.296 27.3221V13.6624H116.14L116.348 15.9217H116.53C116.668 15.4889 116.859 15.082 117.101 14.7012C117.344 14.303 117.672 13.9827 118.088 13.7403C118.503 13.4806 119.014 13.3508 119.62 13.3508C119.88 13.3508 120.114 13.3767 120.321 13.4287C120.546 13.4633 120.711 13.5066 120.815 13.5585V15.662H119.958C119.369 15.662 118.858 15.7659 118.426 15.9736C118.01 16.1641 117.664 16.4411 117.387 16.8047C117.11 17.1682 116.902 17.601 116.764 18.1031C116.642 18.6052 116.582 19.1419 116.582 19.7132V27.3221H114.296ZM126.503 27.6337C125.793 27.6337 125.239 27.5039 124.841 27.2442C124.443 26.9672 124.157 26.6123 123.984 26.1795C123.811 25.7293 123.724 25.2532 123.724 24.7512V15.5841H121.958V13.6624H123.776L124.192 9.84496H126.009V13.6624H128.58V15.5841H126.009V24.4136C126.009 24.8464 126.087 25.1753 126.243 25.4004C126.399 25.6082 126.693 25.712 127.126 25.712H128.58V27.2182C128.407 27.3048 128.199 27.3741 127.957 27.426C127.715 27.4779 127.464 27.5212 127.204 27.5558C126.962 27.6078 126.728 27.6337 126.503 27.6337Z" fill="#757385"/>
<path d="M131.654 27.3221V9.48139H138.38L141.782 18.207C141.904 18.5013 142.042 18.8908 142.198 19.3756C142.371 19.8603 142.544 20.3624 142.717 20.8818C142.908 21.3839 143.063 21.834 143.185 22.2322H143.392C143.496 21.8686 143.626 21.4531 143.782 20.9857C143.955 20.5009 144.128 20.0162 144.301 19.5314C144.474 19.0293 144.63 18.5965 144.769 18.233L148.171 9.48139H154.741V27.3221H150.43V17.5318C150.43 17.099 150.43 16.6402 150.43 16.1554C150.447 15.6534 150.465 15.1859 150.482 14.7531C150.499 14.3203 150.508 13.974 150.508 13.7143H150.3C150.231 13.974 150.127 14.3203 149.989 14.7531C149.85 15.1686 149.703 15.6014 149.547 16.0516C149.409 16.4844 149.279 16.8653 149.158 17.1942L145.132 27.3221H141.107L137.056 17.1942C136.9 16.8133 136.744 16.4065 136.589 15.9736C136.45 15.5408 136.32 15.1253 136.199 14.7271C136.095 14.3289 135.991 13.9913 135.887 13.7143H135.68C135.697 13.9913 135.714 14.3463 135.732 14.7791C135.749 15.2119 135.758 15.6707 135.758 16.1554C135.775 16.6229 135.783 17.0817 135.783 17.5318V27.3221H131.654ZM166.828 27.6337C165.114 27.6337 163.642 27.3741 162.413 26.8547C161.184 26.318 160.24 25.5216 159.582 24.4655C158.924 23.3921 158.595 22.0591 158.595 20.4663C158.595 18.8562 158.924 17.5231 159.582 16.4671C160.24 15.411 161.184 14.6233 162.413 14.1039C163.642 13.5845 165.114 13.3248 166.828 13.3248C168.542 13.3248 170.013 13.5845 171.242 14.1039C172.489 14.6233 173.441 15.411 174.099 16.4671C174.757 17.5231 175.086 18.8562 175.086 20.4663C175.086 22.0591 174.757 23.3921 174.099 24.4655C173.441 25.5216 172.489 26.318 171.242 26.8547C170.013 27.3741 168.542 27.6337 166.828 27.6337ZM166.828 24.6992C167.745 24.6992 168.507 24.5434 169.113 24.2318C169.736 23.9202 170.204 23.47 170.515 22.8814C170.827 22.2928 170.983 21.583 170.983 20.7519V20.2066C170.983 19.3583 170.827 18.6398 170.515 18.0512C170.204 17.4625 169.736 17.0211 169.113 16.7267C168.507 16.4151 167.745 16.2593 166.828 16.2593C165.927 16.2593 165.166 16.4151 164.542 16.7267C163.919 17.0211 163.452 17.4625 163.14 18.0512C162.828 18.6398 162.673 19.3583 162.673 20.2066V20.7519C162.673 21.583 162.828 22.2928 163.14 22.8814C163.452 23.47 163.919 23.9202 164.542 24.2318C165.166 24.5434 165.927 24.6992 166.828 24.6992ZM178.374 27.3221V13.6364H181.594L181.88 15.8438H182.113C182.563 15.2379 183.083 14.7531 183.671 14.3895C184.26 14.026 184.892 13.7576 185.567 13.5845C186.26 13.4114 186.943 13.3248 187.619 13.3248C188.831 13.3248 189.843 13.5239 190.657 13.9221C191.488 14.303 192.111 14.8916 192.527 15.688C192.942 16.4844 193.15 17.5058 193.15 18.7523V27.3221H189.203V19.3756C189.203 18.8562 189.134 18.4147 188.995 18.0512C188.857 17.6876 188.649 17.3933 188.372 17.1682C188.112 16.9432 187.792 16.7787 187.411 16.6748C187.047 16.5709 186.632 16.519 186.164 16.519C185.472 16.519 184.831 16.6662 184.243 16.9605C183.671 17.2375 183.213 17.6357 182.866 18.155C182.52 18.6571 182.347 19.2457 182.347 19.9209V27.3221H178.374ZM204.763 27.6337C203.031 27.6337 201.543 27.3827 200.296 26.8806C199.05 26.3613 198.089 25.5735 197.413 24.5175C196.738 23.4614 196.401 22.1197 196.401 20.4923C196.401 18.8822 196.73 17.5491 197.388 16.493C198.045 15.4196 198.989 14.6233 200.218 14.1039C201.447 13.5845 202.91 13.3248 204.607 13.3248C206.355 13.3248 207.827 13.5845 209.022 14.1039C210.234 14.6233 211.142 15.3937 211.748 16.4151C212.372 17.4366 212.683 18.7091 212.683 20.2326V21.3752H200.53C200.564 22.1716 200.755 22.8295 201.101 23.3489C201.447 23.8509 201.932 24.2231 202.555 24.4655C203.196 24.6906 203.949 24.8031 204.815 24.8031C205.23 24.8031 205.654 24.7598 206.087 24.6733C206.52 24.5694 206.918 24.4309 207.282 24.2578C207.645 24.0673 207.948 23.8336 208.191 23.5566C208.433 23.2623 208.572 22.9247 208.606 22.5438H212.605C212.605 23.3056 212.424 23.9981 212.06 24.6213C211.696 25.2446 211.168 25.7813 210.476 26.2314C209.783 26.6815 208.952 27.0278 207.983 27.2702C207.031 27.5126 205.957 27.6337 204.763 27.6337ZM200.53 18.9601H208.502C208.502 18.4926 208.407 18.0858 208.217 17.7395C208.026 17.376 207.758 17.0817 207.412 16.8566C207.065 16.6315 206.658 16.4584 206.191 16.3372C205.741 16.216 205.247 16.1554 204.711 16.1554C203.897 16.1554 203.187 16.268 202.581 16.493C201.993 16.7008 201.525 17.0211 201.179 17.4539C200.833 17.8694 200.616 18.3715 200.53 18.9601ZM218.002 32.464C217.448 32.464 216.954 32.4207 216.521 32.3341C216.106 32.2476 215.742 32.1437 215.431 32.0225V29.5295H217.3C217.976 29.5295 218.521 29.4343 218.937 29.2438C219.369 29.0707 219.716 28.8197 219.975 28.4907C220.252 28.1618 220.495 27.7722 220.702 27.3221L214.34 13.6364H218.625L221.352 20.1027C221.473 20.397 221.62 20.7693 221.793 21.2194C221.966 21.6522 222.139 22.0937 222.312 22.5438C222.503 22.9939 222.659 23.3921 222.78 23.7384H222.988C223.022 23.6518 223.083 23.47 223.169 23.193C223.256 22.8987 223.369 22.5698 223.507 22.2062C223.646 21.8253 223.784 21.4445 223.923 21.0636C224.078 20.6827 224.208 20.3451 224.312 20.0508L226.727 13.6364H230.856L225.429 26.2054C225.013 27.1403 224.589 27.9887 224.156 28.7504C223.741 29.5122 223.256 30.1701 222.702 30.7241C222.165 31.2781 221.516 31.7022 220.754 31.9965C219.993 32.3082 219.075 32.464 218.002 32.464Z" fill="#2A2739"/>
</svg>
